<svg xmlns="http://www.w3.org/2000/svg" viewBox="0 0 1059.17 777.59"><defs><style>.cls-1{fill:#4c4846;}.cls-2{fill:#514e4c;}.cls-3{fill:#e3761a;}.cls-4{fill:#393532;}.cls-5{fill:#b14928;}.cls-6{fill:#5f5c5a;}.cls-7{fill:#282422;}.cls-8{fill:#2f2a28;}.cls-9{fill:#3f3c3a;}.cls-10{fill:#ea9320;}.cls-11{fill:#45423f;}.cls-12{fill:#a2362a;}.cls-13{fill:#d36e26;}.cls-14{fill:#db431e;}.cls-15{fill:#272220;}.cls-16{fill:#6a6665;}.cls-17{fill:#999796;}.cls-18{fill:#b3b1af;}.cls-19{fill:#a6a3a2;}.cls-20{fill:#8d8b8a;}.cls-21{fill:#7e7b7a;}.cls-22{fill:#f1ac88;}.cls-23{fill:#c75f22;}.cls-24{fill:#c3c2c1;}.cls-25{fill:#bdbbba;}.cls-26{fill:#f9d47e;}.cls-27{fill:#f4bf8c;}.cls-28{fill:#c8c7c7;}.cls-29{fill:#fefdfd;}</style></defs><title>jmiAsset 2</title><g id="Layer_2" data-name="Layer 2"><g id="Layer_1-2" data-name="Layer 1"><path class="cls-1" d="M452.28,390.58c.11,1.32.32,2.64.32,4q0,58.69,0,117.39c-.05,22.79-14.63,41.49-36.23,44.92-17.47,2.77-34.68,1.95-48.56-11.62-8.36-8.19-13.11-18.17-13.43-29.73-.43-15.63,0-31.29,0-46.93,2.92-2.28,6.21-4.23,8.68-6.93,3.44-3.75,7.18-6.6,12.13-7.52a31.36,31.36,0,0,1,3.35-4.32c4.63-4.25,9.27-8.51,14.16-12.45,3.35-2.71,7.12-4.9,10.7-7.32,1.72-.83,2.55-2.75,3.94-4.11a73.35,73.35,0,0,1,8.54-7.29c2.18-1.57,5.2-2.1,7.15-3.87,5.62-5.08,10.26-11.31,17.9-13.85,1.19-.39,1.84-2.2,2.92-3.16C446.63,395.3,449.47,393,452.28,390.58Z"/><path class="cls-2" d="M452.28,390.58c-2.81,2.38-5.65,4.72-8.4,7.17-1.08,1-1.73,2.77-2.92,3.16-7.64,2.54-12.28,8.77-17.9,13.85-1.95,1.77-5,2.3-7.15,3.87a73.35,73.35,0,0,0-8.54,7.29c-1.39,1.36-2.22,3.28-3.94,4.11-3.58,2.42-7.35,4.61-10.7,7.32-4.89,3.94-9.53,8.2-14.16,12.45a31.36,31.36,0,0,0-3.35,4.32c-5,.92-8.69,3.77-12.13,7.52-2.47,2.7-5.76,4.65-8.68,6.93-.09-7.78-.25-15.57-.24-23.35q0-35.81.19-71.61l1.35-1.06-1.35-1.06c-.07-4.49-.18-9-.18-13.48q0-66,0-131.91c0-1.82.12-3.65.19-5.48,5.1-.84,4.3-5,4.48-8.37.32-6,.78-6.61,7-6.67l0,5.94-2.62.78.1.77,2.53.5c.09.32.2.63.32.94q0,16,0,32l.51,22.16.07,28.95L366,317.52c0,8.63-.07,17.26,0,25.89a20.16,20.16,0,0,0,.93,4.17l3,1,10.95,1c.6,2.24,1.33,4.17,4,1.91l2,0,3,.05,4,0c1.29.65,2.52,1.66,3.88,1.89,3.87.64,7.8.95,11.71,1.4l30.91,3.55c.18-2.52.33-4.71.49-6.91L440,315.6v-19q.42-9,.85-18c3.11-4.44,5.91-8.51,3.64-14.79-1.32-3.67,0-8.39.54-12.59.13-1.07,1.6-2,2.25-2.72l5.05,3.16c.1,1.32.29,2.63.29,3.95q0,65.55,0,131.08C452.62,388,452.4,389.27,452.28,390.58Z"/><path class="cls-3" d="M920.72,320.77c2.13-16.69,14.8-31.9,37.25-32.69a275.92,275.92,0,0,1,29.89.37,36.77,36.77,0,0,1,32.85,28.25,17,17,0,0,1,.19,3v60.17c-32.57,5.94-64.89,11.22-96.41,15.9-1.52-3.14-2.5-5.14-3.47-7.15,0-3-.13-6-.14-9Q920.79,350.2,920.72,320.77Zm22.16-15.35-.07.07-3.87,3.06a3,3,0,0,1-.16,1c-6.19,3.92-5.44,10.48-7,18l23.19-7c14.76-4.69,30-8.06,45.26-15.1-5.61-3.76-10.4-5.44-15.55-5.58-8.49-.24-17-.51-25.46.09-4.81.35-9.5,2.4-14.24,3.68Z"/><path class="cls-1" d="M297.51,413.57v5l-5.44.25c.22,4.13,2.51,4.86,5.44,4.79,1.57,21.08-8.39,36.55-28,43.08a32.38,32.38,0,0,1-9.26,1.43c-12.76.3-25.54.38-38.31.54-.81-1.25-1.34-3-2.49-3.66-5.06-2.85-9.55-6.15-12.15-11.56a11,11,0,0,0-1.82-2.32l-4,4.49c-.07-12.28-.17-24.56-.18-36.85q0-39.35,0-78.7c0-1.81.22-3.62.34-5.43l6.87,4.34.78-8,1.27-.44,5.15,7.73c-2.69,4.43-2.25,5.31,1.31,8.45,4.44,3.91,8.26,8.52,12.72,12.38,5.26,4.56,8.38,12.15,16.56,12,.65,2.44.56,5.07,1.84,6.44,5.59,6,11.6,11.6,17.4,17.4,4.18,4.18,8.22,8.51,12.42,12.68,3.17,3.13,6.49,6.1,9.94,9.32l2.14-5.92Z"/><path class="cls-4" d="M859.75,300.56v3l-2.26,1,2.26,1v88c-1.39.34-3.17.27-4.11,1.12a83.89,83.89,0,0,0-6.34,7.19c-.45,1.37-1.14,3.44-1.84,5.57l-5.23-2.28c-4.22,4.45-9.05,8.48-12.39,13.5-2,3-3.89,5.32-7.07,6.38-6.17,2-9.31,7.22-13.4,12-1.37.7-3.69,1.16-4.79,2.57-4.87,6.24-12.78,7.95-18.46,12.88s-11.79,9.63-16.8,15.23c-2.25,2.52-3.91,4.69-7.37,4.83-.09-5.46-.26-10.92-.27-16.39q0-35.09,0-70.16c0-1.82.17-3.63.26-5.45a26.4,26.4,0,0,0,4.33-1.93c4.63-3.12,8.8-7.19,13.81-9.41,7.44-3.3,10.91-10,15.85-15.56l51.93-7.55V326.54q0-8.52,0-17c.08-1.32.15-2.63.23-3.95,1.16-.45,3-.59,3.36-1.4C853.21,300.33,856.39,300.37,859.75,300.56Z"/><path class="cls-4" d="M52.92,473.92c11.77-.07,23.54-.22,35.3-.21,19.9,0,39.8.15,59.69.23,1.33,1.49,2.41,3.41,4,4.39a100.08,100.08,0,0,0,9.48,4.56l6.38-2.86c3.69,12.22,15.8,15.35,21.62,25.16,0,.36-.1,1.6-.18,2.71l4.12,1.59c.54,2.34.87,4.29,1.46,6.17.52,1.67,1.32,3.26,2,4.89q-2,9-4,18l-1,2c-5.57,10.65-14,17.17-26.34,17.2q-65.32.18-130.65.08c-2,0-3.92-.3-5.88-.46a36.37,36.37,0,0,1,5.24-.76q28.34-.09,56.67-.06h41.59l.38-1.23c-4.9-5.33-9.68-10.77-14.73-15.95-3.58-3.67-7.69-6.83-11.29-10.48-8.24-8.36-16.3-16.9-24.47-25.33q-4.64-4.79-9.43-9.4c-4.59-4.41-9.31-8.68-13.84-13.15C56.9,478.79,55,476.29,52.92,473.92Z"/><path class="cls-5" d="M1021.56,450.23q.09,36.28.16,72.56a12.59,12.59,0,0,1-.67,2.84V497.44L924.3,513.37c-1.37-2.45-2.31-4.13-3.26-5.81q0-31.47,0-62.93c3.62.59,7.36,2.08,10.84,1.62,11.58-1.52,23.07-3.74,34.6-5.71,8.92-1.52,17.86-3,26.75-4.66,8.39-1.61,16.72-3.54,25.09-5.29a12.89,12.89,0,0,1,2.49,0Q1021.19,440.38,1021.56,450.23Z"/><path class="cls-6" d="M201.62,267.57c-.13-3.31-.52-6.64-.35-9.94.78-15.81-7.42-26.31-20-34.35a24.5,24.5,0,0,0-14.61-3.95c-10.32.34-20.67-.22-31,.2-7.66.3-13.67-2.55-18.63-7.89-16.82-18.1-21.11-49,2-69.06,4.13-3.59,8.54-5.89,14.57-5.85,43.64.25,87.28.13,130.93.08,20.51,0,33.14,12.42,33.15,32.87q0,75.21,0,150.42c0,1.49-.16,3-.25,4.47-6.44.44-6.65-3.93-5.8-8.15l-5.91,3.12a29.55,29.55,0,0,1-.84-5.22c.13-8.29.43-16.57.67-24.86l-.12-20q0-19,0-38,0-8.5-.1-17-.15-14.94-.29-29.88v-15c.33-12.23-4.26-18.14-16.16-20.6a30.18,30.18,0,0,0-5.94-.42c-42.73,0-85.46.08-128.18-.06-4.7,0-7.9,1.58-10.15,5.5a28.61,28.61,0,0,0-9.07,17.46c-2,7.13-.11,13.87,2.85,20.12,2,4.19,5.42,7.7,8.21,11.52,1.55,3.57,4.72,3.68,7.94,3.68l42.29,0a.9.9,0,0,0,.74.35c9.53,5.39,19.09,10.72,26.11,19.48,6.23,9.54,10.63,19.62,9.28,31.42a29.93,29.93,0,0,0,.13,4.43c-.11.7-.21,1.39-.32,2.09l-4.87-.73c-.65,1.6-1.22,3-1.73,4.25Z"/><path class="cls-2" d="M201.62,267.57l4.63.53c.51-1.24,1.08-2.65,1.73-4.25l4.87.73v2.95l-2.8,2.28,2.82,2.76q.09,6,.2,11.93v26.57l72.75,21V319.54l5.91-3.12c-.85,4.22-.64,8.59,5.8,8.15l0,89L290.06,411l-2.14,5.92c-3.45-3.22-6.77-6.19-9.94-9.32-4.2-4.17-8.24-8.5-12.42-12.68-5.8-5.8-11.81-11.4-17.4-17.4-1.28-1.37-1.19-4-1.84-6.44-8.18.13-11.3-7.46-16.56-12-4.46-3.86-8.28-8.47-12.72-12.38-3.56-3.14-4-4-1.31-8.45l-5.15-7.73-1.27.44-.78,8-6.87-4.34c-.12-5.45-.37-10.9-.36-16.35C201.35,301.35,201.5,284.46,201.62,267.57Z"/><path class="cls-7" d="M859.75,451.56q0,8,0,16c-2.62,2.73-2.62,9.3,0,12-.28,14.13.63,28.4-1.12,42.34-2.51,19.91-20.86,35.08-41,35.74-9.63.32-19.35.92-28.52-3.2-9.82-4.42-17.76-10.83-22.37-20.84.52-.75,1.5-1.53,1.47-2.26-.14-2.91-.6-5.81-.92-8.55,4.33-2.35,8.7-4.14,12.37-6.86,4.51-3.35,8.1-8,12.73-11.12,5.32-3.6,8.35-9.95,15.5-11.58,3.21-.73,6.61-4,8.32-7,2.07-3.68,5.32-5.25,8.31-7.46A70.19,70.19,0,0,0,830.9,474c6.82-6.31,13.33-13,20.35-19C853.44,453.09,856.88,452.65,859.75,451.56Z"/><path class="cls-8" d="M859.75,451.56c-2.87,1.09-6.31,1.53-8.5,3.42-7,6.07-13.53,12.73-20.35,19a70.19,70.19,0,0,1-6.33,4.71c-3,2.21-6.24,3.78-8.31,7.46-1.71,3-5.11,6.3-8.32,7-7.15,1.63-10.18,8-15.5,11.58-4.63,3.13-8.22,7.77-12.73,11.12-3.67,2.72-8,4.51-12.37,6.86.32,2.74.78,5.64.92,8.55,0,.73-1,1.51-1.47,2.26-1.61-5-4.43-9.87-4.63-14.88-.61-15.37-.21-30.77-.21-46.16,3.46-.14,5.12-2.31,7.37-4.83,5-5.6,11.08-10.27,16.8-15.23s13.59-6.64,18.46-12.88c1.1-1.41,3.42-1.87,4.79-2.57,4.09-4.78,7.23-10,13.4-12,3.18-1.06,5.09-3.4,7.07-6.38,3.34-5,8.17-9.05,12.39-13.5l5.23,2.28c.7-2.13,1.39-4.2,1.84-5.57a83.89,83.89,0,0,1,6.34-7.19c.94-.85,2.72-.78,4.11-1.12Z"/><path class="cls-9" d="M655.85,416.55q0,27.49,0,55l-2.69-6.7c-2.39-.74-4.12,1.29-6.13,3.37a94.7,94.7,0,0,1-10.14,9.28c-4.17,3.21-8.88,5.74-13.08,8.93-4.66,3.53-8.76,7.85-13.58,11.12-4.53,3.09-9.4,5.54-11.85,10.85a5.18,5.18,0,0,1-2.17,2c-6.82,3.8-12.41,9.05-18.24,14.17-4.62,4.06-9.65,7.4-12.37,13.12-5.09-6.35-7.15-13.85-7.41-21.73-.33-9.78,0-19.59,0-29.39,3,.13,4.87-.66,4.22-4.27a6,6,0,0,1,.78-3.23c2.48-5.43,10.77-9.65,17.66-8.73,3.08-3.72,6.34-7.67,9.59-11.62l-.56-.59,4.2-1.19-.62-.78,9.26-9.72c8.87,1.78,10.68-6.48,15-11L622,437c1-3.49,1-7.43,3-9.47s5.87-2,9.05-3c3.54-9.54,6.37-11.35,14.92-8.12l1.49-3.8Z"/><path class="cls-10" d="M927,163.54c-5.55-12.59-16.45-15.25-28.66-15.4-14.81-.17-29.63-.15-44.44-.47-11.41-.24-22.38-11.43-22.74-23.74-.49-16.64-.35-33.3,0-49.95.22-12.45,11.4-23.82,24-24.15,15.81-.41,31.64-.34,47.46,0,10.33.23,17.94,7.45,22,16.71,2.29,5.24,2.15,10.18,2.22,15.32.17,13.31.41,26.65-.09,40-.46,12.16,9.61,20.65,18.48,22a123.52,123.52,0,0,0,15.34,1.51c12.14.29,24.29.23,36.44.31.11.76.21,1.52.34,2.43h8.34l-5.28,2.51,5.26,1.82c-.16.44-.31.88-.46,1.33l-8.94-2.33,1.78,2.07c-3-.65-6.06-1.79-9.11-1.85-11.11-.24-22.22-.2-33.33-.09a18.71,18.71,0,0,0-18.67,18.67c-.08,8.78,0,17.57.08,26.36q-.09,6-.16,12a34.81,34.81,0,0,1-.8-5.23c-.07-11.59,0-23.18,0-33.93h-5.57Zm-15-68.67h0c0-5.82-.07-11.65,0-17.47a20.07,20.07,0,0,0-20.16-20c-10.81.3-21.64-.12-32.45.13A19.26,19.26,0,0,0,840.9,76.08c-.16,12,.18,24-.07,35.94-.22,11,10,18.73,18.73,18.67,11.32-.07,22.64.06,34-.05,10.5-.1,18.41-8.18,18.53-18.8C912.11,106.19,912.05,100.53,912.05,94.87Z"/><path class="cls-4" d="M565.59,537.68c2.72-5.72,7.75-9.06,12.37-13.12,5.83-5.12,11.42-10.37,18.24-14.17a5.18,5.18,0,0,0,2.17-2c2.45-5.31,7.32-7.76,11.85-10.85,4.82-3.27,8.92-7.59,13.58-11.12,4.2-3.19,8.91-5.72,13.08-8.93A94.7,94.7,0,0,0,647,468.22c2-2.08,3.74-4.11,6.13-3.37l2.69,6.7c0,15.32.51,30.65,0,45.95-.65,18.09-14.95,34.89-33.47,38.89-12.08,2.61-24.57,3-36.36-1.94-4.35-1.82-8.15-5-12.2-7.49.6-4.06-1.95-5-5.2-5.27Z"/><path class="cls-11" d="M655.85,416.55l-5.37-3.92-1.49,3.8c-8.55-3.23-11.38-1.42-14.92,8.12-3.18.94-7.12,1-9.05,3s-2,6-3,9.47l-4.26-1.58c-4.37,4.53-6.18,12.79-15,11l-9.26,9.72.62.78-4.2,1.19.56.59c-3.25,4-6.51,7.9-9.59,11.62-6.89-.92-15.18,3.3-17.66,8.73a6,6,0,0,0-.78,3.23c.65,3.61-1.26,4.4-4.22,4.27q0-26.51,0-53c7.37-2.14,12-7.57,16.38-14,11.88,1.57,15.41-8.91,21.59-16a12.77,12.77,0,0,1,2,.16c6.07,1.43,6.79.85,7.91-5.06.3-1.61,1.54-3.13,2.59-4.5,3.44-4.49,11.42-3.33,12.26-10.67l6.49.72c.76-2.14,1.49-4.22,2-5.66l6.68-5.77,4.87-1.12v-5.17l3-2,7.12-1.15,4.76,3.14Z"/><path class="cls-12" d="M921,507.56c1,1.68,1.89,3.36,3.26,5.81l96.75-15.93v28.19c-1.16,16.1-16.09,31.1-32.54,31.87-11.63.54-23.32.5-35,0-16.35-.73-30.35-14.64-32.81-31.8Z"/><path class="cls-7" d="M90.92,556.53q-28.33,0-56.67.06a36.37,36.37,0,0,0-5.24.76c-18-5.12-29-22.17-26.85-41.78,1.23-11.1,5-21.19,13.05-29.29A26,26,0,0,1,20.1,486c1.8.24,4,.47,5.23,1.58q8.81,8,17.14,16.52c3.89,4,7.39,8.35,11.68,13.24a11.18,11.18,0,0,1,3.39,1.86c3.76,3.66,7.31,7.55,10.93,11.36,3.38,3.56,6.67,7.2,10.12,10.68,3.85,3.86,7.93,7.5,11.69,11.45C91,553.49,90.74,555.24,90.92,556.53Z"/><path class="cls-1" d="M640.93,366.53v5.17l-4.87,1.12-6.68,5.77c-.51,1.44-1.24,3.52-2,5.66l-6.49-.72c-.84,7.34-8.82,6.18-12.26,10.67-1,1.37-2.29,2.89-2.59,4.5-1.12,5.91-1.84,6.49-7.91,5.06a12.77,12.77,0,0,0-2-.16c-6.18,7-9.71,17.53-21.59,16-4.41,6.43-9,11.86-16.38,14-.06-22.06-.16-44.11-.18-66.17,0-10.61.12-21.22.18-31.83,1.89-1.14,3.71-2.38,5.66-3.39s4-1.74,6-2.6q.07,12,.13,24l0,12,3,1Z"/><path class="cls-8" d="M90.92,556.53c-.18-1.29.1-3-.64-3.81-3.76-4-7.84-7.59-11.69-11.45-3.45-3.48-6.74-7.12-10.12-10.68-3.62-3.81-7.17-7.7-10.93-11.36a11.18,11.18,0,0,0-3.39-1.86c-4.29-4.89-7.79-9.25-11.68-13.24q-8.31-8.52-17.14-16.52c-1.23-1.11-3.43-1.34-5.23-1.58a26,26,0,0,0-4.89.25c6.93-8,15.41-12.82,26.3-12.58,3.8.09,7.61.15,11.41.22,2.06,2.37,4,4.87,6.21,7.07,4.53,4.47,9.25,8.74,13.84,13.15q4.78,4.61,9.43,9.4c8.17,8.43,16.23,17,24.47,25.33,3.6,3.65,7.71,6.81,11.29,10.48,5,5.18,9.83,10.62,14.73,15.95l-.38,1.23Z"/><path class="cls-1" d="M722.9,209.64,715,209q1.49-5.55,3-11.09l5,.36,2,.4,2,.3,3,.65a53.61,53.61,0,0,1,23,9.66l2.21,1c-.16-.54-.32-1.09-.49-1.63l-.93-4.56-1.18-2.56q-1.23-4.51-2.48-9c0-1.33,0-2.66-.07-4,1.29-1.6,1.71-3.05-.71-4-.11-1-.23-2-.34-3,2.48-4,4.76-8.11,10-9,.29,1.66.57,3.33.86,5-3.84,2.09-1.44,3,.73,4l1.71,11.87-1.46,1.38,2,.74c1.69,4.69,3.43,9.35,5,14.06,1.93,5.58,6.15,8.17,11.52,10,11.72,4,23.88,4.12,36,4.94a167.72,167.72,0,0,1,18.35,1.87c5.36,1,10.66,2.67,14.36,7.22l-20.25-4c-1.1,2-2.46,4.37-3.83,6.78-18.18,0-36.28-.6-54-7.29,5.26,9.53,3.54,19.63,4,29.48q0,10,0,20l-.21,29c-1.13-1.49-2.27-3-3.75-4.91a52.33,52.33,0,0,1-4,5.11,27.38,27.38,0,0,1-4,2.75q-.13-21.93-.27-43.85c0-5.32-.35-10.67.07-15.95,1.58-20.24-13.52-33.53-28.16-38.15-2.85-.9-5.76-1.59-8.65-2.38Z"/><path class="cls-13" d="M1021.56,450.23q-.37-9.84-.73-19.69V405.71c-5.11,1.36-9.65,3.09-14.33,3.73-14.63,2-29.38,3.21-44,5.49-13,2-25.82,5.1-38,7.57L921,419.6q0-15.51,0-31c1,2,2,4,3.47,7.15,31.52-4.68,63.84-10,96.41-15.9V319.66a35.3,35.3,0,0,1,.85,5.34q.09,61.63.08,123.27A14.43,14.43,0,0,1,1021.56,450.23Z"/><path class="cls-2" d="M758.94,172.55c-5.24.89-7.52,5-10,9l-1.65-7.15-1.65-9c-2-12.5-4.72-14.87-17.27-14.87q-64.73,0-129.44,0c-9.66,0-19.31-.13-29-.2,0-6.51,1.36-8.57,7.28-8.68,6.92-.14,13.86.48,20.8.73,2.89.1,6.21,1,6.94-3.39,2.32-.08,4.65-.22,7-.22q59.49,0,119,0c14.09,0,20.69,4.59,25,18.21C757.5,162,758,167.34,758.94,172.55Z"/><path class="cls-6" d="M605,139c-.73,4.36-4.05,3.49-6.94,3.39-6.94-.25-13.88-.87-20.8-.73-5.92.11-7.31,2.17-7.28,8.68-1.82.09-3.64.26-5.46.26q-55.35,0-110.69,0c-14.95,0-29.91-.1-44.86-.16-.31-1.39-.62-2.78-.89-4,3.49-2.26,8.11-2.55,8.91-7.41,1.32-.08,2.65-.22,4-.22q90,0,180.07,0C602.33,138.73,603.66,138.9,605,139Z"/><path class="cls-2" d="M569.83,329.57c-2,.86-4.05,1.61-6,2.6s-3.77,2.25-5.66,3.39q-.09-36.92-.19-73.84c0-3.66-.28-7.34.06-11A29.35,29.35,0,0,0,552.74,231c.52-2.41-.25-3.73-2.93-3.41l-3-2.74-2.93-2.29c-8.89-5.47-18.72-8.21-28.9-9.92l-2-.17h-12c-1.48-3.82-2.49-7.65,0-11.45l11.91.08c1.62,4,3.82,2.27,6,.62l2,.28,4,.75,8,2.09c.67,1.45.87,4.16,3.19,1.19l10.86,4.75,1,.78,6,4.14,1,.86,1.83,1.06,3.14,4,3.27,4.78q3.44,8,6.88,16.09l0,20q0,11.5,0,23v43Z"/><path class="cls-10" d="M966.88,84.53c-1.12-4.42-3.06-8.8-3.2-13.25-.45-13.79.09-27.61-.33-41.4C962.86,13.57,973.49.53,992.16.25c13.63-.21,27.29-.47,40.91.07s25.85,9.79,26,25.77c.09,10.14-.08,20.28-.13,30.41l-3.46-3.81h-9.84c-.74,3-1.59,6.47-2.44,9.91l-.3-3.05q0-18,0-36c.42-7.74-8.61-15.85-15.26-16.12-11.77-.48-23.55-.88-35.32-.9-13.25,0-20.76,9.75-20.5,21.08.21,9,.05,18,.05,26.93-.58,8-.13,15.64,7.11,21,.39.63.77,1.26,1.16,1.88l-13.76,2.44C966.54,81.63,966.71,83.08,966.88,84.53Z"/><path class="cls-14" d="M1023,209.49c.21,6.63,1.08,13.35-2.28,19.55-4.9,9-12.34,14.33-22.77,14.46-14.81.18-29.63.3-44.44,0-10.91-.26-18.88-5.56-23.17-15.86l5.2-2.16v4.72l1.42.46c1-2.12,1.92-4.24,2.38-5.27l7.65-2c4.72.7,9.42,1.8,14.16,2,8,.33,16,.09,23.93.07,12.13,0,18.57-4.47,23-15.88l2,3.28Z"/><path class="cls-15" d="M438.69,634.35,419.8,667.67H411c-1.74-11.76-3.47-23.4-5.19-35l-1.18-.21c-2.38,11.5-4.76,23-7.27,35.1h-8.88c.86-4.45,1.63-8.5,2.45-12.55,1.94-9.62,4-19.21,5.8-28.86.69-3.68,2.6-5.16,6.16-5,1.66.08,3.33.11,5,.13,3.11,0,4.89,1.36,5.38,4.63,1.13,7.4,2.46,14.77,3.73,22.15.28,1.63.63,3.25,1.18,6,3.46-5.87,6.42-10.9,9.36-15.94,1.68-2.88,3.35-5.76,5-8.66,4.81-8.61,8.47-10.12,19.51-7.17-2.92,14.91-5.85,29.91-8.88,45.36h-9c2.23-11.35,4.38-22.24,6.52-33.12.11-1.35.21-2.7.32-4l.18-.08-.1.18Z"/><path class="cls-2" d="M718,197.87q-1.5,5.53-3,11.09c-12.88.06-25.59,1.28-37.46,6.69a68.62,68.62,0,0,0-12.79,7.58c-6.14,4.66-9,10.84-8.83,19,.41,16.78,0,33.57,0,50.35-5-2.84-5-2.8-8.61,2.2-.64.87-2,1.23-3,1.82l-.24-14q0-11.51,0-23l0-20c-.25-8.63,3.81-15.52,8.83-22C671.44,200.86,693.61,195.77,718,197.87Z"/><path class="cls-15" d="M677.74,762l-3.37-37.5h10.31c.61,8.48,1.21,16.85,1.81,25.21l1.06.23c3.82-8.38,7.65-16.76,11.64-25.5h9.51c.71,8.91,1.39,17.34,2.07,25.77,5.78-7.59,8.72-16.39,11.77-25.71h10.82c-2.89,7-5.26,13.32-8.09,19.42A124.36,124.36,0,0,1,718,757c-4.17,6.72-6.59,7.49-14.87,5.1-.69-6.92-1.4-14-2.1-21.08l-.8-.21c-2.25,4.91-4.57,9.79-6.73,14.74C690,763.75,687.66,764.8,677.74,762Z"/><path class="cls-15" d="M456.91,763.33a47.42,47.42,0,0,1,.32-5.62c2.83-14,5.82-28,8.54-42,.71-3.64,2.41-5.19,6.05-5,5.49.25,11,.16,16.46.53,4.75.33,9,2.08,10.34,7.16a13.09,13.09,0,0,1-4.51,13.94c-1,.85-2.07,1.62-3.44,2.69,4.45,2.08,7,5.27,6.9,10a16.26,16.26,0,0,1-7.27,13.54c-2,1.41-4.39,2.87-6.72,3.1C474.91,762.47,466.19,762.79,456.91,763.33Zm11.49-7.85c5.05-.81,9.54-.94,13.56-2.38,3.51-1.25,5-4.81,4.26-8.65s-3.91-4.19-6.89-4.48c-2.59-.25-5.23-.05-8.1-.05C470.32,744.91,469.48,749.57,468.4,755.48ZM473,732.31c3.33-.23,6.32-.09,9.15-.72a7.9,7.9,0,0,0,5.79-8.75c-.68-4.33-4.09-4.15-7.28-4.24-1.6-.05-3.2,0-4.91,0-.6,2.42-1.14,4.32-1.52,6.25C473.83,727.09,473.52,729.37,473,732.31Z"/><path class="cls-9" d="M196.83,520.55c-.68-1.63-1.48-3.22-2-4.89-.59-1.88-.92-3.83-1.46-6.17l-4.12-1.59c.08-1.11.16-2.35.18-2.71-5.82-9.81-17.93-12.94-21.62-25.16l-6.38,2.86a100.08,100.08,0,0,1-9.48-4.56c-1.63-1-2.71-2.9-4-4.39,10.08-.08,20.17-.51,30.22-.13,9.05.34,16.18-2.3,20.94-10.25l.89-2q.75-3,1.51-6l4-4.49a11,11,0,0,1,1.82,2.32c2.6,5.41,7.09,8.71,12.15,11.56,1.15.65,1.68,2.41,2.49,3.66L210,474.77c-2.92-2.25-1.74.71-2.12,1.67l-1.16,1-2,2A33.39,33.39,0,0,0,197,503.27C197.3,509,196.91,514.79,196.83,520.55Z"/><path class="cls-15" d="M424.5,727.86c1.83-5.15,5.55-4,9.78-3.22-1,5.28-1.88,10.45-2.89,15.61-1.28,6.53-2.86,13-3.93,19.57-2.29,14-9.23,18.24-23.57,17.67-3.08-.12-6.13-1-10-1.72.64-3.07,1.14-5.49,1.71-8.21,6.61,1.87,12.82,4.13,18.37.33,2.13-1.45,2.69-5.21,4-8-4.56,1.47-8.19,3.31-12,3.71-6.22.67-10.2-2.8-11.11-8.94a33.24,33.24,0,0,1,5.44-23.77C404.74,724.11,415.72,719.63,424.5,727.86ZM422,736.29c-5.5-6.26-11.07-5.74-14.2,1.32a29.91,29.91,0,0,0-2.56,10.53c-.11,2.25,1.13,5.94,2.7,6.54,1.82.69,5.12-.74,7-2.24C419.79,748.4,421.12,742.48,422,736.29Z"/><path class="cls-15" d="M844.76,760.15c-5.12,1.37-9.11,3.05-13.22,3.38-5,.41-8-2.28-9.54-7.09-3-9.14,1.28-23.51,8.76-29.6,5.94-4.83,13.32-4.6,20.21.8,2.09-4.84,5.8-4,10.09-2.82-1.21,6.22-2.35,12.22-3.54,18.2-1,5.21-2.42,10.37-3.17,15.62-2.18,15.26-9.33,20-26,18.73-2.41-.19-4.77-1.12-7.91-1.9.71-2.85,1.3-5.23,2-8,6.48,2.13,12.53,4,18,.57C842.56,766.66,843.29,762.94,844.76,760.15Zm3.72-23.92c-5.09-6.15-11.16-5.59-14.15,1.33a30,30,0,0,0-2.42,10.58c-.09,2.27,1.12,6,2.68,6.55,1.8.69,5.07-.78,6.94-2.27C846.54,748.41,847.78,742.47,848.48,736.23Z"/><path class="cls-16" d="M417,139c-.8,4.86-5.42,5.15-8.91,7.41.27,1.25.58,2.64.89,4-4.93.31-9.91.31-14.79,1-7.74,1.14-14.77,3.91-19.5,10.71l-6.15,10.23c-.51.58-1.42,1.14-1.45,1.74-.33,5.46-.51,10.93-.74,16.4q-.24,7.53-.49,15.07c-6.18.06-6.64.65-7,6.67-.18,3.35.62,7.53-4.48,8.37,0-13.6-.92-27.27.08-40.8,1.69-23,19.21-39.41,42.6-40.94C403.67,138.45,410.33,138.91,417,139Z"/><path class="cls-15" d="M273.28,707.33h10c-1.2,6.76-2.35,13.19-3.58,20.12,2.67-1.28,4.67-2.45,6.81-3.22,8.3-3,14.81,1.15,15.55,9.87s-1.06,16.6-6.56,23.41c-6.06,7.5-15.45,8.29-22.83,2.18-2.89,3.79-3.91,4.09-10.27,2.58C266,744.16,269.57,726,273.28,707.33ZM274.81,751c5.68,6.2,11,5.65,14.16-1.49a31.69,31.69,0,0,0,2.59-10.5c.15-2.15-1.13-6.11-2.22-6.28a10.57,10.57,0,0,0-7.5,2.09C277,738.83,275.63,744.77,274.81,751Z"/><path class="cls-7" d="M578.75,640.87c-5.35-1.25-8.29,1.7-9.67,5.14-2.27,5.64-3.48,11.7-5.12,17.59-.31,1.11-.52,2.25-.94,4l-9,.46c2.39-12.08,4.63-23.38,6.89-34.84l6.58-.37,1.59,3.55c11.86-6,15.46-5.53,18.84,1.49,3.78-1.82,7.38-4.47,11.36-5.28,6.52-1.32,11,2.81,10.26,9.36-1,8.54-3,17-4.65,25.73h-9.1c.86-4.72,1.69-9,2.44-13.4s1.4-8.64,2.09-13l-1.43-1.19c-1.85.57-4.45.56-5.41,1.81a41.23,41.23,0,0,0-6.38,10.91c-1.61,4.49-2.06,9.39-3.13,14.66h-8.57C575.42,658.25,580.26,649.91,578.75,640.87Zm-10.08-3.5.3-.33a2.81,2.81,0,0,0-.58-.28c-.07,0-.19.19-.28.29Z"/><path class="cls-6" d="M501,201c-2.53,3.8-1.52,7.63,0,11.45-10.67,1.59-21.22,3.68-30.46,9.66a68.83,68.83,0,0,0-9.35,7.32,26.17,26.17,0,0,0-8.8,22.16l-5.05-3.16c-.65.75-2.12,1.65-2.25,2.72-.5,4.2-1.86,8.92-.54,12.59,2.27,6.28-.53,10.35-3.64,14.79q-.43-6.49-.88-13l0-20a17.75,17.75,0,0,1,3.83-13.07c4.27-5.62,8.85-11,13.29-16.49,1-.61,2-1.19,2.92-1.85C472.32,205.6,486.08,201.58,501,201Z"/><path class="cls-7" d="M273.88,665.49c-4.77,2.63-9.78,5.17-14.95,1.65-5.34-3.64-5.09-9.53-4-15a37,37,0,0,1,4.36-12.06c5.24-8.58,13.49-10,20.63-5l10.53-2.87c-.79,4.42-1.27,7.34-1.83,10.23q-2.31,11.76-4.67,23.51c-2.12,10.61-6.45,14.53-17.34,15-4,.15-8.06-.74-12.79-1.22.66-3.06,1.08-5,1.53-7.15A101.38,101.38,0,0,0,265.56,674c6.36.21,8-1.36,9.07-7.9v-1.9Zm5-21.78c-2.49-3.28-5.35-4.82-9.07-2.62-5.28,3.11-7.45,14.22-3.9,19.4C273.39,661,277.65,655.57,278.88,643.71Z"/><path class="cls-9" d="M762,310.55a27.38,27.38,0,0,0,4-2.75,52.33,52.33,0,0,0,4-5.11c1.48,1.94,2.62,3.42,3.75,4.91l.21,6v43.27L796,353.65c-4.94,5.51-8.41,12.26-15.85,15.56-5,2.22-9.18,6.29-13.81,9.41a26.4,26.4,0,0,1-4.33,1.93c-.1-12.24-.25-24.49-.26-36.73C761.71,332.73,761.87,321.64,762,310.55Z"/><path class="cls-13" d="M966.88,84.53c-.17-1.45-.34-2.9-.55-4.67l13.76-2.44,1.84.41.92.75.06,0,1.18.8c4.11.34,8.21.9,12.32,1,7.46.16,15-.28,22.39.11,9.79.52,17.51-2.62,22.79-11.09,5.37,4.51,9.83-.41,14-1.48l3.37,3.55c0,1.35-.09,2.71-.13,4.06l-11.67,10.56c-3.62-3.85-6.81-2.51-10.23-.62a14.64,14.64,0,0,1-6.29,1.92c-7.29.23-14.58.09-21.85.09l-2.89,4.12H989.79c-.74,1.51-1.29,2.65-1.95,4H977.76A19.17,19.17,0,0,1,966.88,84.53Z"/><path class="cls-15" d="M249.63,727.69c1.93-4.86,5.62-4,10-2.9-2.51,12.6-5,25.07-7.55,38l-7.84.47-1-4.07a8.39,8.39,0,0,0-1.37.31c-3.47,1.4-6.83,3.65-10.41,4.07-6.62.8-10.62-2.95-11.47-9.68a32.15,32.15,0,0,1,5-21.93C231,722.32,240.52,720.75,249.63,727.69ZM229.17,748.6c1.26,2.25,2,5.35,3.65,6s4.87-.38,6.64-1.69c5-3.7,6.71-9.34,7.37-15.25a5,5,0,0,0-1.43-3.43,6.79,6.79,0,0,0-11.34,1.43C231.94,739.52,230.89,743.93,229.17,748.6Z"/><path class="cls-15" d="M331,763.19v-3.51c-4.57,1.32-9.11,3.28-13.81,3.81s-8-2.32-9.08-6.9c-2.55-11-.11-20.87,7.8-28.91,5.82-5.93,13.59-5.69,21.08-.16,2.28-3.78,3.65-4.19,10.06-2.64q-1.89,9.38-3.79,18.82c-1.23,6.16-2.46,12.32-3.81,19Zm4.12-26.12c-5.75-6.88-11.54-6.66-14.47.13-1.83,4.25-2.42,9.24-2.6,13.94-.14,3.8,2.79,5.27,6.23,3.47,2.12-1.11,4.42-2.76,5.51-4.78C332,745.69,333.45,741.14,335.1,737.07Z"/><path class="cls-15" d="M763.52,727.65c2.74-4.06,3.72-4.36,10.12-2.75-2.46,12.44-4.92,24.91-7.48,37.81l-7.55.51-1.54-3.09c-4.26,1.26-8.08,3-12.05,3.43-6,.57-9.88-2.77-10.8-8.72a31.68,31.68,0,0,1,5.59-24.15C746,722.12,755.33,721,763.52,727.65Zm-2.28,8.56c-5.84-6.21-11.08-5.6-14.27,1.63a33.81,33.81,0,0,0-2.55,11c-.14,2,1,5,2.52,5.79s4.55-.21,6.22-1.4C758.91,749.15,760.3,742.8,761.24,736.21Zm-4,23.31h.29v-.95h-.29Z"/><path class="cls-15" d="M533.45,728c1.62-5.33,5.37-4.1,9.83-3.4-2.49,12.58-4.94,25-7.51,38h-8.46v-4.16a8.52,8.52,0,0,0-1.48.65,46.54,46.54,0,0,1-4.07,2.85c-9.24,4.91-17.28.76-18.19-9.57a32.23,32.23,0,0,1,6.05-22.07C514.2,723.82,525.1,719.8,533.45,728Zm-2.4,8.75c-5.53-6.8-11.2-6.45-14.45,1a35.26,35.26,0,0,0-2.52,12.53c-.18,4.75,3.51,6.69,7.35,3.87a24.44,24.44,0,0,0,6.65-7.81C529.64,743.49,530.09,740,531.05,736.75Z"/><path class="cls-15" d="M212.75,750.89c.57,7.93-.85,10-7.47,11.75-1.13.29-2.26.58-3.41.76-16,2.44-25.2-6.06-23.62-22.14,1.07-10.81,4.91-20.38,14.21-26.89,6.53-4.57,13.78-5.55,21.43-3.62,6.9,1.74,8.15,5.14,4.23,12.09-1.09-.6-2.21-1.18-3.3-1.8-7-4-14-2.69-19,3.85A29.74,29.74,0,0,0,189.7,743c-.12,9.34,6.32,14,15.28,11.09C207.47,753.26,209.85,752.09,212.75,750.89Z"/><path class="cls-7" d="M676.54,635.23c.7-3.06,1.37-5.79,2-8.55.55-2.58,1-5.19,1.64-8.39h9.07c-3.33,16.62-6.57,32.83-9.9,49.46l-7.24.37c-.16-1.72-.27-2.93-.32-3.42-3.84,1.34-7.56,3.29-11.48,3.84-4.81.67-8.07-1.93-9.16-6.61a26.8,26.8,0,0,1,6-24.67C662,631.58,668.28,631.05,676.54,635.23Zm-.77,10c-5.88-6.79-11.06-6.22-13.83.45a26,26,0,0,0-2.06,8.58c-.1,2,1,5.84,1.87,5.92,2.3.24,5.77-.37,7-2C671.64,654.22,673.55,649.48,675.77,645.23Z"/><path class="cls-15" d="M849,635.62c1.15-5.81,2.22-11.16,3.44-17.35l9.22-.62c-3.42,17.16-6.65,33.35-10,50l-7.16.55c-.36-1.62-.62-2.77-.72-3.24-3.7,1.29-7.13,3.12-10.74,3.6-5.4.72-9-2.22-9.9-7.61-1.37-8,.1-15.6,5-22.21C833.38,631.77,840.8,630.59,849,635.62Zm-15.26,24.69c7.51,1.13,13.41-6.49,13-16.82-3.77-3.74-6.35-4.3-9.42-2C832.64,645,830.73,654.93,833.75,660.31Z"/><path class="cls-15" d="M617.46,724.37h10.36c-1.54,4.35-2.68,8.07-4.14,11.66-5.74,14.13-14.47,26.48-23.4,38.68-2.37,3.24-6.79,3.74-12.71,1.54,2.3-3.14,4.23-6.43,6.79-9.11,2.78-2.92,3-6,2.29-9.6-1.81-9.79-3.44-19.63-5.13-29.44-.13-.8-.15-1.61-.31-3.42l10.1-.87c1.36,9,2.62,17.3,4,26.53C611.8,742.41,613.88,733.19,617.46,724.37Z"/><path class="cls-7" d="M579.61,762.7h-9.83c.63-10.29,5.28-19.65,3.84-31.19-3.14,1.18-6.28,1.38-7.49,3a47,47,0,0,0-6.73,12.41c-1.68,4.81-2.2,10-3.34,15.65H545.94c2.56-12.8,5-25.13,7.61-38.11l7.94-.45.57,4.67c2.52-1.48,4.79-3.2,7.35-4.23,9.78-4,16.92,1.58,15.29,12.07C583.37,745.06,581.42,753.5,579.61,762.7Z"/><path class="cls-3" d="M1023,209.49l-12.91,3.36-2-3.28c0-12.81,0-25.61-.08-38.42a34.31,34.31,0,0,0-1-5.71q-2.55-4.22-5.12-8.43a1.81,1.81,0,0,0-.42-.41l-1.47-1.53-1.93-1.57-.1-.06-1.78-2.07,8.94,2.33c.15-.45.3-.89.46-1.33l-5.26-1.82,5.28-2.51h-8.34c-.13-.91-.23-1.67-.34-2.43l5.1.31,2.47.73,2.47.94c.15,1.24.29,2.48.48,4.08l5.22-1c6.16,4.09,10,9.94,10.21,17.19C1023.3,181.71,1023,195.6,1023,209.49Z"/><path class="cls-15" d="M377.62,732.91c-5.7-1.69-9.07,1.13-10.61,4.68-2.61,6-4.1,12.51-6,18.83-.56,1.89-.81,3.86-1.29,6.25H349.68c2.56-12.8,5-25.12,7.64-38.16l7.92-.51c.25,1.68.44,2.88.64,4.21a6.61,6.61,0,0,0,1.48-.32c2.63-1.38,5.09-3.36,7.88-4.1,8.55-2.25,14.46,2.74,13.26,11.46-1.24,9-3.28,18-5.05,27.4h-9.74C373.81,752.5,379,743.18,377.62,732.91Z"/><path class="cls-15" d="M668.31,724.63c-2.55,12.81-5,25.27-7.6,38.15l-7.76.35c-.3-1.6-.53-2.8-.78-4.1a6.61,6.61,0,0,0-1.47.26c-3.29,1.43-6.45,3.73-9.87,4.21-8,1.11-12.5-3.5-11.33-11.55,1.31-9,3.27-17.94,5-27.41h10.22l-4.18,21.94c-.19,1-.69,2-.49,2.91.4,1.81.73,4.43,1.94,5.05s3.88-.12,5.35-1.1c4.37-2.92,6.45-7.48,7.55-12.47,1.13-5.18,2.08-10.4,3.24-16.24ZM652.64,758l-.26-.31-.29.3.41.31Z"/><path class="cls-9" d="M824,236.37c1.37-2.41,2.73-4.82,3.83-6.78l20.25,4,3.5,3.06c-1,3.27.78,4.4,3.61,4.76A19.33,19.33,0,0,1,860,254.61c-.23,15.31-.17,30.63-.23,45.95-3.36-.19-6.54-.23-8.32,3.6-.38.81-2.2.95-3.36,1.4l-.27-31.05q0-8.49-.07-17c1.24-7.81-3.91-12.31-8.8-16.95l-2-1.08Zm23.41.58-.91.07.18,2.12.89-.08C847.48,238.36,847.42,237.65,847.37,237Z"/><path class="cls-15" d="M793.54,728.18c2.75-1.49,5.34-3.56,8.27-4.37,8.59-2.36,14.32,2.41,13.35,11.31-.73,6.75-2.35,13.4-3.62,20.08-.44,2.28-1,4.52-1.7,7.38h-9.91c1.46-7.6,2.83-14.72,4.21-21.84.16-.82.68-1.68.52-2.41-.42-2-.6-4.89-1.86-5.54s-4.74,0-5.7,1.25A46.39,46.39,0,0,0,790,746.2c-1.82,5.09-2.36,10.63-3.54,16.45H776.39c2.54-12.83,5-25.28,7.55-38,3.24.19,7-3.39,8.4,2.46-.13.72-.25,1.44-.52,3Z"/><path class="cls-15" d="M9.47,667.62H0c2.21-11,4.3-21.41,6.4-31.79.72-3.59,1.54-7.16,2.2-10.75.52-2.79,2.21-4,4.9-3.92,5,.11,10,0,15,.46,7.43.78,11.12,5.8,10.23,13.18-1.15,9.59-8,16-18.14,16.73-2.47.18-5,0-7.61,0C11.77,657,10.69,662,9.47,667.62Zm4.79-23.2a55.78,55.78,0,0,0,6.62-.41,10,10,0,0,0,7.88-10.59c-.37-3.75-2.55-5-8.85-4.89-.8,0-1.59.16-2.52.26C16.37,633.86,15.41,638.69,14.26,644.42Z"/><path class="cls-1" d="M644.2,296.57c1-.59,2.4-.95,3-1.82,3.64-5,3.58-5,8.62-2.2v74l-4.76-3.14L644,364.56q0-6.51,0-13v-23Q644.06,312.56,644.2,296.57Z"/><path class="cls-7" d="M1059.17,632.43c-2.48,12.51-4.67,23.53-7,35.17l-7.35.56c-.21-1.64-.35-2.69-.48-3.7-.51,0-.87,0-1.09.11-1.25.8-2.4,1.79-3.72,2.46-8.76,4.51-16.67.11-16.34-9.72a40.44,40.44,0,0,1,3.79-15.74c4.68-9.77,13.77-11.69,21.34-6.57Zm-25.73,27.66c8.13,1.49,12.59-3.94,14-16.19-3.9-4.62-8.06-5.11-11-1A19.14,19.14,0,0,0,1033.44,660.09Z"/><path class="cls-15" d="M736.74,667.66l-7.07.5-1.13-3.57a9.83,9.83,0,0,0-1.42.48c-1.9,1-3.67,2.35-5.67,3-7,2.32-12.8-1.39-13.6-8.74a30.35,30.35,0,0,1,4.91-19.92c4-6.26,13.82-10.46,21.66-3.15,1.78-4.25,5-3.8,9.08-2.64ZM732,643.84c-3.41-4-6.51-4.77-9.69-2.27-4.54,3.56-6.4,13.32-3.56,18.67C726.26,661.54,731.19,655.43,732,643.84Z"/><path class="cls-7" d="M160.81,667.72l-7.23.39c-.27-1.55-.46-2.61-.68-3.81a9.64,9.64,0,0,0-1.32.47c-1.87,1.05-3.61,2.43-5.6,3.16-7.24,2.64-13.23-1-14-8.63A29.55,29.55,0,0,1,137.18,639c4.77-6.91,14.93-9.3,21.3-2.58,1.8-4.29,5-4,9.11-2.68C165.37,644.82,163.17,655.85,160.81,667.72Zm-3.71-22.64c-5.57-6.53-10.5-6.11-13.36.06a24.29,24.29,0,0,0-2.41,8.55c-.14,2.21,1.2,4.51,1.89,6.76,2.52-.82,6.1-.87,7.36-2.61C153.41,653.94,155.08,649.21,157.1,645.08Z"/><path class="cls-7" d="M320.65,636.43c1.4-4.51,4.72-3.72,8.91-3-2.27,11.36-4.49,22.5-6.82,34.14l-7.09.62c-.37-1.62-.64-2.78-.82-3.55-3.28,1.35-6.34,3.24-9.64,3.84-6,1.1-10.25-2.12-11.07-8-1.09-7.85.37-15.3,5.18-21.76C304.84,631.26,312.89,630.44,320.65,636.43ZM318,643.86c-3.34-3.86-6.18-4.68-9.24-2.67-4.86,3.19-7.06,13.93-3.92,19.15C312.17,661.33,317.46,654.71,318,643.86Z"/><path class="cls-14" d="M977.76,95.62h10.08c.66-1.33,1.21-2.47,1.95-4h16.13l2.89-4.12c7.27,0,14.56.14,21.85-.09a14.64,14.64,0,0,0,6.29-1.92c3.42-1.89,6.61-3.23,10.23.62l11.67-10.56c-.25,11.32-11.12,23-23.5,23.39-15.78.44-31.58.31-47.36,0C984.56,98.85,981.17,96.77,977.76,95.62Z"/><path class="cls-7" d="M362.13,667.63h-8.71c.08-9.36,5.1-17.68,3.15-26.77-5.14-1.31-7.94,1.63-9.62,5-1.9,3.78-2.82,8.07-3.95,12.2-.84,3-1.33,6.12-2.07,9.62h-9.06c2.34-11.65,4.58-22.81,6.84-34.09,3.54-.52,7.06-2.65,8.11,3a59.74,59.74,0,0,1,6.41-3.35c8.42-3.16,14.63,1.42,13.48,10.39C365.7,651.52,363.76,659.28,362.13,667.63Zm-15.5-30.24.33-.34a2.72,2.72,0,0,0-.62-.3c-.07,0-.19.19-.29.3Z"/><path class="cls-7" d="M906.84,633.23h7v4.42a13.6,13.6,0,0,0,1.46-.62c2.26-1.37,4.35-3.26,6.79-4,8.31-2.67,13.94,2.21,12.6,11.06-1.16,7.72-2.93,15.35-4.53,23.54h-8.61c0-9.3,4.85-17.63,3.27-26.58-5.88-.72-10.25,2.66-12,9.27-1.51,5.59-2.57,11.3-3.93,17.41H900C902.26,656.12,904.5,645,906.84,633.23Z"/><path class="cls-7" d="M221.17,633.24h7.17c.21,1.24.39,2.3.59,3.52a6.47,6.47,0,0,0,1.28-.3c2.82-1.3,5.51-3.33,8.47-3.83,6.92-1.16,11.23,2.65,10.46,9.61-.93,8.38-2.82,16.65-4.37,25.4H236c-.27-9.2,4.86-17.53,3.41-26.35-4-2-6.69,0-8.31,2.34a38.6,38.6,0,0,0-4.77,10.22c-1.31,4.25-1.89,8.74-2.93,13.83l-9.07.39C216.67,656.15,218.87,645,221.17,633.24Z"/><path class="cls-7" d="M789.35,633.3l6.92-.34c.23,1.73.41,3.06.5,3.77,3.5-1.43,6.85-3.54,10.44-4.12,6.54-1.06,10.22,2.47,10,9.09a74.46,74.46,0,0,1-1.53,11.37c-.89,4.72-2,9.39-3.18,14.58H804c.21-9.15,4.83-17.67,3.38-26.7-5.56-.55-9.34,1.89-11.33,7.57-1.47,4.21-2.16,8.69-3.18,13.05-.41,1.78-.76,3.57-1.26,6h-9.11Z"/><path class="cls-15" d="M875.57,668.69c-9.79-.12-14.26-4.89-13.79-14.71.67-14,10-22.6,23.26-21.46,6.9.59,10.88,4.07,11.44,10.87C897.53,656.09,890.38,669.05,875.57,668.69Zm12.64-22.54c-1.54-2.3-2.51-5.41-4.18-5.85a10.39,10.39,0,0,0-7.7,1.45c-3.9,2.75-4.77,7.41-5.07,12-.18,2.84-.31,5.89,3,7.22,3.54,1.41,7,.47,8.82-2.59C885.25,654.77,886.41,650.59,888.21,646.15Z"/><path class="cls-15" d="M480.56,633.36h9c-2.32,11.63-4.54,22.81-6.82,34.31l-6.83.44c-.3-1.53-.53-2.7-.79-4a9.85,9.85,0,0,0-1.49.54,41.43,41.43,0,0,1-5.56,3.21c-8,3-14.08-1.15-13.17-9.57.89-8.21,2.79-16.32,4.32-24.89H468c-.35,9.12-4,17.58-3.83,26.15,4,2.06,6.66.68,8.3-1.67a35.93,35.93,0,0,0,4.87-9.63C478.73,643.7,479.39,638.89,480.56,633.36Z"/><path class="cls-7" d="M624.35,653.11c-.72,7.17.79,9,7,8.57,3.44-.25,6.83-1.09,10.24-1.66.75,5.47.17,6.93-5,7.6a59.43,59.43,0,0,1-14.72,0c-4.23-.51-6.53-3.94-7-8-1-8.13,1-15.61,6.64-21.66,5.29-5.65,12.09-6.65,19.29-4.75,3.77,1,6.46,3.65,6.8,7.73a8.41,8.41,0,0,1-5.16,8.88,47.25,47.25,0,0,1-10,2.82A62,62,0,0,1,624.35,653.11Zm1.54-5.89c3.48-.47,6.76-.55,9.78-1.49,1.23-.39,2.78-2.8,2.55-4s-2.43-2.53-3.91-2.72C630.26,638.52,627.44,641.29,625.89,647.22Z"/><path class="cls-7" d="M949.63,653.14c-.75,6.85.88,8.92,6.72,8.55,3.58-.23,7.11-1.08,11-1.7.69,4.21-.45,7.08-4.84,7.62a62.58,62.58,0,0,1-12.35.79c-6.48-.5-9.81-4.36-10.08-10.81a26.44,26.44,0,0,1,6.17-19,18.91,18.91,0,0,1,20-5.45c3.77,1.28,6.37,3.7,6.68,7.81a8.38,8.38,0,0,1-5.17,8.86,48.57,48.57,0,0,1-10,2.78A64.9,64.9,0,0,1,949.63,653.14Zm1-5.85c4-.53,7.33-.61,10.38-1.55,1.24-.38,1.93-2.61,2.86-4-1.39-.94-2.74-2.61-4.18-2.69C955,638.79,952.54,641.89,950.62,647.29Z"/><path class="cls-15" d="M57.53,667.67H48c2.57-13,5-25.5,7.64-38.79H42.8c.6-2.87,1-4.89,1.54-7.31h35.3c-.47,2.48-.88,4.65-1.4,7.33H65.41C62.77,641.91,60.22,654.4,57.53,667.67Z"/><path class="cls-15" d="M513.37,633.6l5-.91c.67-2.55,1.31-4.93,2-7.7H529c-.36,2.67-.66,4.94-1,7.72l7.83.84c-.5,2.41-1,4.54-1.42,6.77l-8.28.38c-1.19,6.34-2.36,12.61-3.66,19.57l7.34.5c.3,6.06-1.21,7.71-7.18,7.84-6.38.14-9.64-2.55-9.07-8.38.54-5.6,1.93-11.12,2.94-16.67.15-.81.29-1.62.48-2.66l-5-.81C512.48,637.83,512.9,635.84,513.37,633.6Z"/><path class="cls-7" d="M974.53,659.37c11.14,4,12.71,3.76,15.6-2.37a62.24,62.24,0,0,0-5.73-3.86c-3.72-2-6.74-4.24-6.57-9.06s2.78-8.09,6.88-10.2c4.49-2.32,11.49-1.87,16.77,1.11l-1,5.75c-2.69-.63-4.94-1.69-7.08-1.5s-5.24,1.08-6.11,2.66c-1.52,2.77,1.57,3.76,3.63,4.77,6.82,3.38,8.59,5.86,7.92,11.14s-4.37,9.18-10.65,10.42c-5,1-9.91.88-14.73-2.41C973.81,663.83,974.14,661.8,974.53,659.37Z"/><path class="cls-7" d="M121.06,621.29l8.78-.4a15.75,15.75,0,0,1,.11,3c-2.25,11.21-4.28,22.48-6.9,33.6-2.37,10.09-11,13.84-20.8,9.09.35-2.18.73-4.52,1.16-7.17,1.41.2,2.34.27,3.24.47,4.46,1,6.17.12,7.15-4.41,2.21-10.2,4.19-20.45,6.29-30.68C120.28,623.82,120.61,622.89,121.06,621.29Z"/><path class="cls-13" d="M947,223.38l-7.65,2c-.46,1-1.42,3.15-2.38,5.27l-1.42-.46v-4.72l-5.2,2.16c-.81-3.49-2.21-7-2.3-10.46-.29-11.6,0-23.22-.14-34.83-.08-6.26-.56-12.51-.86-18.77l3.35,5.84h5.57c0,10.75,0,22.34,0,33.93a34.81,34.81,0,0,0,.8,5.23c.1,1.17-.23,2.69.39,3.45C940.29,215.9,943.67,219.61,947,223.38Z"/><path class="cls-7" d="M501.75,618.16h9.13c-3.35,16.75-6.57,32.82-9.89,49.43h-9.13C495.2,650.9,498.44,634.69,501.75,618.16Z"/><path class="cls-7" d="M772.43,621.41H782c-3.14,15.74-6.15,30.79-9.25,46.26h-9.57C766.33,652,769.33,637,772.43,621.41Z"/><path class="cls-7" d="M179,667.67H170c2.34-11.78,4.55-23,6.74-34,3.88-1.19,7-1.83,8.42,2.75,3.57-2.86,6.89-5.5,11.93-2.94-.5,2.51-1,5-1.48,7.47-8.23.37-11.87,3.64-13.53,11.8C181.06,657.64,180.07,662.5,179,667.67Zm5.33-30.86-.14.31h.55a1.19,1.19,0,0,0-.14-.3C184.57,636.78,184.44,636.82,184.35,636.81Z"/><path class="cls-7" d="M871.34,724.49h10.15c-2.57,12.91-5,25.34-7.59,38.21H863.72C866.29,749.78,868.78,737.36,871.34,724.49Z"/><path class="cls-7" d="M202.91,633.41h9.14c-2.32,11.62-4.52,22.65-6.82,34.19h-9.14C198.4,656,200.6,645,202.91,633.41Z"/><path class="cls-7" d="M545,667.71h-9.14c2.29-11.53,4.49-22.55,6.8-34.18h9.13Z"/><path class="cls-7" d="M1013,667.78h-9.12c2.27-11.61,4.44-22.72,6.71-34.38l9.21-.56C1017.48,644.76,1015.31,656,1013,667.78Z"/><path class="cls-7" d="M695.22,633.34h9.11c-2.26,11.55-4.44,22.69-6.72,34.28h-9.13Z"/><path class="cls-3" d="M1059,71.51,1055.61,68c-4.19,1.07-8.65,6-14,1.48.53-2.28,1.07-4.56,1.6-6.84.85-3.44,1.7-6.88,2.44-9.91h9.84l3.46,3.81Q1059,64,1059,71.51Z"/><path class="cls-17" d="M921,388.58q0,15.51,0,31l0,25q0,31.47,0,62.93l-.3,18.12a54.19,54.19,0,0,1-.84-6.8q0-96.13.09-192.29a46.28,46.28,0,0,1,.73-5.82q.07,29.42.16,58.84C920.89,382.6,921,385.59,921,388.58Z"/><path class="cls-8" d="M74.82,668.45c-2.91-.06-4.77-1.21-4.6-4.45.24-4.61,2.52-6.86,6.71-6.8,2.93,0,4.75,1,4.57,4.36C81.25,666.12,78.94,668.56,74.82,668.45Z"/><path class="cls-7" d="M885.3,709.81c-.85,2.49-1,6.06-2.73,7.21-2.38,1.57-6,1.3-8.92,1.8-1.71-4.32-1.23-7.68,1.33-9.23,2.37-1.43,5.79-1.13,8.75-1.59C884.25,708.6,884.77,709.21,885.3,709.81Z"/><path class="cls-8" d="M695.94,626.82c.81-2.31,1-5.6,2.59-6.69,2.06-1.38,5.32-1,8.06-1.35l1.13,1.52c-.83,2.31-1,5.56-2.66,6.7-2,1.39-5.27,1-8,1.41Z"/><path class="cls-8" d="M1022.7,620.34c-.74,8-4.05,9.88-11.54,6.17,1.05-2.29,1.55-5.37,3.35-6.8C1016.8,617.89,1020.05,618.16,1022.7,620.34Z"/><path class="cls-8" d="M554.41,618.8c.28,9-3.28,11.4-11,7.9.79-2.21,1-5.49,2.6-6.58C548.06,618.76,551.31,619.19,554.41,618.8Z"/><path class="cls-8" d="M215.65,620.6c-1.09,2.32-1.63,5.32-3.42,6.8-2.33,1.93-5.54,1.7-8-.55C204.19,619.1,207.55,617,215.65,620.6Z"/><path class="cls-2" d="M297.5,423.57c-2.93.07-5.22-.66-5.44-4.79l5.44-.25Z"/><path class="cls-8" d="M859.77,479.55c-2.63-2.71-2.63-9.28,0-12Q859.78,473.56,859.77,479.55Z"/><path class="cls-10" d="M1012.66,150.64l-5.22,1c-.19-1.6-.33-2.84-.48-4.08Z"/><path class="cls-9" d="M568.58,541.69c3.25.26,5.8,1.21,5.2,5.27Z"/><path class="cls-1" d="M855.15,241.46c-2.83-.36-4.63-1.49-3.61-4.76Z"/><path class="cls-2" d="M760.53,181.56c-2.17-1-4.57-1.93-.73-4C760,178.88,760.29,180.22,760.53,181.56Z"/><path class="cls-6" d="M549.81,227.6c2.68-.32,3.45,1,2.93,3.41Z"/><path class="cls-6" d="M543.87,222.57l2.93,2.29Z"/><path class="cls-1" d="M204.72,479.48l2-2Z"/><path class="cls-1" d="M207.9,476.44c.38-1-.8-3.92,2.12-1.67Z"/><path class="cls-9" d="M191.88,540.53l1-2Z"/><path class="cls-16" d="M354.36,371.49l1.35,1.06-1.35,1.06Z"/><path class="cls-1" d="M200,461.56l-.89,2Z"/><path class="cls-6" d="M513,212.48l2,.17Z"/><path class="cls-2" d="M722.9,209.64l2,.58Z"/><path class="cls-2" d="M762.76,195.55l-2-.74,1.46-1.38C762.42,194.14,762.59,194.85,762.76,195.55Z"/><path class="cls-9" d="M859.75,305.56l-2.26-1,2.26-1Z"/><path class="cls-10" d="M1004.49,146.65l-2.47-.73Z"/><path class="cls-18" d="M501,201c-14.88.56-28.64,4.58-40.95,13.13-.95.66-1.94,1.24-2.92,1.85-2.26-.26-4.51-.68-6.78-.76-7.09-.25-14.2-.64-21.29-.47-7.47.19-14.74,2.69-22.36,1.87-3.44-.36-7,.62-10.48.45-6.08-.29-12.13-1-18.2-1.54l-11.8-1c-.12-.31-.23-.62-.32-.94,0-.68,0-1.37,0-2l0-5.94q.24-7.53.49-15.07c3.78.35,7.56.94,11.35,1,10,.14,20,0,30,.08a42.31,42.31,0,0,1,7.87.75c10.13,2,20.24,3.41,30.56,1.24,5.61-1.19,11.09-2.51,17.11-1.26,4.77,1,10,.48,14.92-.07,5.78-.63,11.44-1.94,16.78,1.68a5.07,5.07,0,0,0,3.36.57c4.67-.79,9.34-.57,14-.68,6.35-.15,12.72-.44,19.12-.36,6.68.08,13.37-.69,20.07-1,9.28-.38,18.56-.76,27.85-.88,4.18-.06,8.73-1.27,12.2,2.54.35.39,1.25.37,1.9.37,8.41,0,16.87.62,25.2-.13,13.48-1.21,26.89-2.58,40.46-1.9,7.22.36,14.48,0,21.71.1,3.3.07,6.63,1.13,9.85.84,9.54-.88,18.86-1.74,28.44.92,10.31,2.87,20.84,1.67,31-1.84q1.25,4.52,2.48,9l1.18,2.56.93,4.56-1.72.58a53.61,53.61,0,0,0-23-9.66l-3-.65-2-.3-2-.4-5-.36c-24.34-2.1-46.51,3-65.19,19.64-3.94-.32-7.88-.95-11.82-.9-6.93.1-13.85.81-20.78.89-13.1.16-26.19,0-39.28.05q-12.07,0-24.14.07l-1.83-1.06-1-.86-6-4.14-1-.78L536.08,206l-3.19-1.19-8-2.09-4-.75-2-.28-6-.62Z"/><path class="cls-16" d="M440,315.6l.91,35.92c-11.48-.32-23-.76-34.45-.89-4.18-.05-8.36.62-12.54,1l-4,0-3-.05-2,0-4-1.91-10.95-1-3-1a20.16,20.16,0,0,1-.93-4.17c-.08-8.63,0-17.26,0-25.89,4.71,1.86,9.49,1.48,14.47,1.19,10.55-.6,21.14-.36,31.72-.47,3.56,0,7.16.17,10.7-.21C428.59,317.43,434.28,316.43,440,315.6Z"/><path class="cls-19" d="M366.18,214.51l11.8,1c6.07.53,12.12,1.25,18.2,1.54,3.48.17,7-.81,10.48-.45,7.62.82,14.89-1.68,22.36-1.87,7.09-.17,14.2.22,21.29.47,2.27.08,4.52.5,6.78.76-4.44,5.49-9,10.87-13.29,16.49A17.75,17.75,0,0,0,440,245.56c-10.5-.33-21-1.23-31.47-.82-8,.32-15.94,1.36-24,.93-6.06-.32-12.19.51-18.28.83Q366.19,230.51,366.18,214.51Z"/><path class="cls-20" d="M440,265.56q.45,6.49.88,13-.42,9-.85,18c-6.9,0-13.8-.13-20.69,0-3.79.08-7.59,1-11.35.83-7.34-.35-14.66-1.24-22-1.85a20.41,20.41,0,0,0-4,.13c-5.06.6-10.12,1.27-15.18,1.91l-.07-28.95c5.22-.7,10.48-2.19,15.66-1.94,12.15.56,24.25,2.23,36.39-.11a4.07,4.07,0,0,1,2.45.21c4,2.09,7.88,1.54,11.94-.08C435.24,265.91,437.68,265.92,440,265.56Z"/><path class="cls-17" d="M440,265.56c-2.27.36-4.71.35-6.8,1.18-4.06,1.62-7.91,2.17-11.94.08a4.07,4.07,0,0,0-2.45-.21c-12.14,2.34-24.24.67-36.39.11-5.18-.25-10.44,1.24-15.66,1.94l-.51-22.16c6.09-.32,12.22-1.15,18.28-.83,8.08.43,16-.61,24-.93,10.46-.41,21,.49,31.47.82Z"/><path class="cls-21" d="M366.78,297.61c5.06-.64,10.12-1.31,15.18-1.91a20.41,20.41,0,0,1,4-.13c7.34.61,14.66,1.5,22,1.85,3.76.18,7.56-.75,11.35-.83,6.89-.15,13.79,0,20.69,0v19c-5.7.83-11.39,1.83-17.12,2.43-3.54.38-7.14.17-10.7.21-10.58.11-21.17-.13-31.72.47-5,.29-9.76.67-14.47-1.19Z"/><path class="cls-6" d="M393.9,351.59c4.18-.34,8.36-1,12.54-1,11.48.13,23,.57,34.45.89-.16,2.2-.31,4.39-.49,6.91l-30.91-3.55c-3.91-.45-7.84-.76-11.71-1.4C396.42,353.25,395.19,352.24,393.9,351.59Z"/><path class="cls-6" d="M380.89,349.59l4,1.91C382.22,353.76,381.49,351.83,380.89,349.59Z"/><path class="cls-16" d="M365.85,211.52c0,.68,0,1.37,0,2l-2.53-.5-.1-.77Z"/><path class="cls-6" d="M386.94,351.52l3,.05Z"/><path class="cls-6" d="M366.91,347.58l3,1Z"/><path class="cls-22" d="M938.78,309.52a3,3,0,0,0,.16-1l3.87-3.06.07-.07,2.08-1.85c4.74-1.28,9.43-3.33,14.24-3.68,8.45-.6,17-.33,25.46-.09,5.15.14,9.94,1.82,15.55,5.58-15.28,7-30.5,10.41-45.26,15.1-3.18-.42-6.47-.49-9.52-1.37s-5-.3-6.52,2.53c-.51.93-2,1.3-3.12,1.93l-1.25-1.15c.66-2.07,1.3-4.14,2-6.21C937.26,314,938,311.75,938.78,309.52Z"/><path class="cls-10" d="M938.78,309.52c-.75,2.23-1.52,4.45-2.26,6.69-.68,2.07-1.32,4.14-2,6.21l1.25,1.15c1.07-.63,2.61-1,3.12-1.93,1.55-2.83,3.42-3.41,6.52-2.53s6.34.95,9.52,1.37l-23.19,7C933.34,320,932.59,313.44,938.78,309.52Z"/><path class="cls-10" d="M942.81,305.49l-3.87,3.06Z"/><path class="cls-10" d="M945,303.57l-2.08,1.85Z"/><path class="cls-21" d="M847.8,274.51l.27,31.05c-.08,1.32-.15,2.63-.23,3.95-6.08.26-12.15.62-18.23.77-5.47.13-11-.23-16.41.1-8.53.51-17,1.44-25.55,2.16-4.59.39-9.18.7-13.77,1l-.21-6,.21-29Z"/><path class="cls-6" d="M796,353.65l-22.07,3.21V331.57l27.18-.46c2.32-.48,4.74.29,7.11.15,5.91-.35,11.81-1,17.7-1.73,7.35-.9,14.67-2,22-3V346.1Z"/><path class="cls-16" d="M847.89,326.54c-7.34,1-14.66,2.09-22,3-5.89.72-11.79,1.38-17.7,1.73-2.37.14-4.79-.63-7.11-.15l-27.18.46v-18c4.59-.35,9.18-.66,13.77-1,8.51-.72,17-1.65,25.55-2.16,5.45-.33,10.94,0,16.41-.1,6.08-.15,12.15-.51,18.23-.77Q847.87,318,847.89,326.54Z"/><path class="cls-23" d="M921.06,444.63l0-25,3.49,2.9c12.2-2.47,25-5.53,38-7.57,14.58-2.28,29.33-3.48,44-5.49,4.68-.64,9.22-2.37,14.33-3.73v24.83a12.89,12.89,0,0,0-2.49,0c-8.37,1.75-16.7,3.68-25.09,5.29-8.89,1.71-17.83,3.14-26.75,4.66-11.53,2-23,4.19-34.6,5.71C928.42,446.71,924.68,445.22,921.06,444.63Z"/><path class="cls-18" d="M177.65,207.16a.9.9,0,0,1-.74-.35c-1-.74-1.9-2.08-2.92-2.15-7.41-.51-14.88-1.39-22.24-.88a53.68,53.68,0,0,1-13.07-.95c-3.88-.66-8,.11-12,.26-2.79-3.82-6.22-7.33-8.21-11.52-3-6.25-4.89-13-2.85-20.12,2.94.37,5.88.84,8.83,1.08,9.21.74,18.44,1.37,27.65,2.08.65,0,1.26.42,1.91.5,3.73.49,7.46,1,11.21,1.36,3.2.3,6.44.21,9.63.59,6.22.72,12.39,1.94,18.63,2.4,5.53.42,11.13-.06,16.7.13,5.94.21,12,.17,17.8,1.25,12.56,2.33,25.11,4.19,37.93,3.73,2.32-.08,4.65.13,7,.12,4.07,0,8.14-.07,12.22-.11l.29,29.88c-5.57,1.66-10.92.11-16.49-.46-13.81-1.41-27.54-4.12-41.55-3.55a128.78,128.78,0,0,1-15.8-.83c-6.88-.58-13.75-1.34-20.61-2.11a22.11,22.11,0,0,1-3.71-1.1C184,205.43,180.65,204.35,177.65,207.16Z"/><path class="cls-17" d="M285.5,231.48q0,19,0,38c-11.16-1-22.33-2-33.49-3.08-13-1.25-25.92-2.59-38.88-3.89a29.93,29.93,0,0,1-.13-4.43c1.35-11.8-3-21.88-9.28-31.42,8.56.41,17.15.5,25.67,1.35,5.94.59,11.6,3.66,17.88,1.66,1.6-.51,3.59.33,5.39.29C263.67,229.66,274.45,233.61,285.5,231.48Z"/><path class="cls-24" d="M124.69,154c2.25-3.92,5.45-5.51,10.15-5.5,42.72.14,85.45.06,128.18.06A30.18,30.18,0,0,1,269,149c11.9,2.46,16.49,8.37,16.16,20.6-4,.65-8.08,1.9-12.11,1.81-5.88-.11-11.74-1.18-17.62-1.85l-1.49-.15c-9.69-.94-19.38-1.92-29.08-2.82-10.85-1-21.7-2-32.56-2.93-3-.25-6.14-.07-9.21-.12-3.49-.06-7,.05-10.46-.27-8.55-.79-17.07-1.79-25.61-2.69-7.19-.75-14.38-1.47-21.64-2.21C125.08,156.58,124.88,155.28,124.69,154Z"/><path class="cls-21" d="M285.83,319.54v12.57l-72.75-21V284.5c12.09,1,24.2,1.92,36.27,3.18,7,.73,14.2,1.33,20.89,3.35,5.73,1.72,10.57,1.9,15.42-1.57-.24,8.29-.54,16.57-.67,24.86A29.55,29.55,0,0,0,285.83,319.54Z"/><path class="cls-25" d="M124.69,154c.19,1.29.39,2.59.65,4.35,7.26.74,14.45,1.46,21.64,2.21,8.54.9,17.06,1.9,25.61,2.69,3.46.32,7,.21,10.46.27,3.07.05,6.16-.13,9.21.12,10.86.89,21.71,1.91,32.56,2.93,9.7.9,19.39,1.88,29.08,2.82l1.49.15c5.88.67,11.74,1.74,17.62,1.85,4,.09,8.08-1.16,12.11-1.81v15c-4.08,0-8.15.11-12.22.11-2.33,0-4.66-.2-7-.12-12.82.46-25.37-1.4-37.93-3.73-5.81-1.08-11.86-1-17.8-1.25-5.57-.19-11.17.29-16.7-.13-6.24-.46-12.41-1.68-18.63-2.4-3.19-.38-6.43-.29-9.63-.59-3.75-.35-7.48-.87-11.21-1.36-.65-.08-1.26-.45-1.91-.5-9.21-.71-18.44-1.34-27.65-2.08-3-.24-5.89-.71-8.83-1.08A28.61,28.61,0,0,1,124.69,154Z"/><path class="cls-19" d="M285.5,231.48c-11.05,2.13-21.83-1.82-32.8-1.54-1.8,0-3.79-.8-5.39-.29-6.28,2-11.94-1.07-17.88-1.66-8.52-.85-17.11-.94-25.67-1.35-7-8.76-16.58-14.09-26.11-19.48,3-2.81,6.3-1.73,9.59-.75a22.11,22.11,0,0,0,3.71,1.1c6.86.77,13.73,1.53,20.61,2.11a128.78,128.78,0,0,0,15.8.83c14-.57,27.74,2.14,41.55,3.55,5.57.57,10.92,2.12,16.49.46Q285.46,223,285.5,231.48Z"/><path class="cls-20" d="M285.66,289.46c-4.85,3.47-9.69,3.29-15.42,1.57-6.69-2-13.87-2.62-20.89-3.35-12.07-1.26-24.18-2.14-36.27-3.18q-.11-6-.2-11.93c0-1.68,0-3.36,0-5v-2.95c.11-.7.21-1.39.32-2.09,13,1.3,25.91,2.64,38.88,3.89,11.16,1.08,22.33,2.06,33.49,3.08Z"/><path class="cls-19" d="M126.68,203.09c4-.15,8.12-.92,12-.26a53.68,53.68,0,0,0,13.07.95c7.36-.51,14.83.37,22.24.88,1,.07,1.95,1.41,2.92,2.15l-42.29,0C131.4,206.77,128.23,206.66,126.68,203.09Z"/><path class="cls-6" d="M212.86,267.53c0,1.68,0,3.36,0,5l-2.82-2.76Z"/><path class="cls-26" d="M912.05,94.87c0,5.66.06,11.32,0,17-.12,10.62-8,18.7-18.53,18.8-11.31.11-22.63,0-34,.05-8.69.06-18.95-7.69-18.73-18.67.25-12-.09-24,.07-35.94a19.26,19.26,0,0,1,18.52-18.59c10.81-.25,21.64.17,32.45-.13A20.07,20.07,0,0,1,912,77.4c-.08,5.82,0,11.65,0,17.47Z"/><path class="cls-27" d="M1000,155.07l1.47,1.53V157h.42q2.57,4.22,5.12,8.43V186.9c-3.48,0-6.44-.82-8.6.14-8.81,3.9-18.92.69-27.55,5.39-1.28.7-3.28,0-4.94.14-4.59.42-9.57,0-13.68,1.66-5.1,2.07-10,3.13-15.3,2.3,0-8.79-.16-17.58-.08-26.36a18.71,18.71,0,0,1,18.67-18.67c11.11-.11,22.22-.15,33.33.09,3,.06,6.07,1.2,9.11,1.85l.1.06Z"/><path class="cls-22" d="M936.93,196.53c5.35.83,10.2-.23,15.3-2.3,4.11-1.67,9.09-1.24,13.68-1.66,1.66-.15,3.66.56,4.94-.14,8.63-4.7,18.74-1.49,27.55-5.39,2.16-1,5.12-.14,8.6-.14V165.44a34.31,34.31,0,0,1,1,5.71c.1,12.81.07,25.61.08,38.42-4.45,11.41-10.89,15.87-23,15.88-8,0-16,.26-23.93-.07-4.74-.2-9.44-1.3-14.16-2-3.29-3.77-6.67-7.48-9.8-11.39-.62-.76-.29-2.28-.39-3.45Z"/><path class="cls-6" d="M643.93,351.55q0,6.49,0,13l-3,2-68,0-3-1,0-12c8.56-.33,17.13-.88,25.7-.92,6.41,0,12.84,1,19.23.83C624.58,353.16,634.25,352.21,643.93,351.55Z"/><path class="cls-16" d="M643.93,351.55c-9.68.66-19.35,1.61-29,1.9-6.39.19-12.82-.86-19.23-.83-8.57,0-17.14.59-25.7.92q-.06-12-.13-24l.16-1.06,3.92,1.72a55.17,55.17,0,0,1,6.88-.64c3.45.12,6.9,1,10.31.82,4.71-.26,9.4-1.85,14.06-1.72,6.25.19,12.41.86,18.5-1.11a8.75,8.75,0,0,1,3,0l17.28,1Z"/><path class="cls-2" d="M569.93,365.55l3,1Z"/><path class="cls-25" d="M750.06,192.51c-10.16,3.51-20.69,4.71-31,1.84-9.58-2.66-18.9-1.8-28.44-.92-3.22.29-6.55-.77-9.85-.84-7.23-.14-14.49.26-21.71-.1-13.57-.68-27,.69-40.46,1.9-8.33.75-16.79.15-25.2.13-.65,0-1.55,0-1.9-.37-3.47-3.81-8-2.6-12.2-2.54-9.29.12-18.57.5-27.85.88-6.7.27-13.39,1-20.07,1-6.4-.08-12.77.21-19.12.36-4.67.11-9.34-.11-14,.68a5.07,5.07,0,0,1-3.36-.57c-5.34-3.62-11-2.31-16.78-1.68-4.94.55-10.15,1.07-14.92.07-6-1.25-11.5.07-17.11,1.26-10.32,2.17-20.43.79-30.56-1.24a42.31,42.31,0,0,0-7.87-.75c-10-.08-20,.06-30-.08-3.79-.05-7.57-.64-11.35-1,.23-5.47.41-10.94.74-16.4,0-.6.94-1.16,1.45-1.74,4.07.26,8.14.71,12.21.72,8.13,0,16.26-.49,24.38-.25,8.35.24,16.95,2.66,24.95,1.29,8.72-1.5,17.1-.54,25.63-.63,4.79-.05,9.57-.87,14.36-.88,4.61,0,9.23.8,13.85.89,20.77.42,41.54.68,62.32,1.07,2.95.06,5.91.89,8.84.72,5.75-.34,11.47-1.62,17.21-1.64,10,0,20,.55,30.06.89,9.11.32,18.22.7,27.34,1,2.31.07,4.63-.27,7-.33,9.54-.26,19.09-.66,28.64-.67,5.78,0,11.56.77,17.34.89,8.24.16,16.48.07,24.72,0,2.81,0,5.62-.25,8.43-.3,3.12-.06,6.23,0,9.34,0,7.4-.19,14.81-.45,22.21-.69l1.65,7.15c.11,1,.23,2,.34,3l.71,4C750,189.85,750,191.18,750.06,192.51Z"/><path class="cls-17" d="M824,236.37l13,3.11,2,1.08c4.89,4.64,10,9.14,8.8,16.95-13.09.35-26.19.72-39.29,1-3.74.09-7.48,0-11.21,0a22.44,22.44,0,0,0-5.93.42c-5.9,1.74-11.67,2-17.43-.43-.41-9.85,1.31-19.95-4-29.48C787.68,235.77,805.78,236.33,824,236.37Z"/><path class="cls-20" d="M773.87,258.56c5.76,2.46,11.53,2.17,17.43.43a22.44,22.44,0,0,1,5.93-.42c3.73-.06,7.47.06,11.21,0,13.1-.31,26.2-.68,39.29-1q0,8.5.07,17l-73.92,4.06Q773.88,268.56,773.87,258.56Z"/><path class="cls-2" d="M750,188.53c-.23-1.33-.47-2.66-.71-4C751.7,185.48,751.28,186.93,750,188.53Z"/><path class="cls-2" d="M752.93,209.24l1.72-.58c.17.54.33,1.09.49,1.63Z"/><path class="cls-2" d="M726.92,198.93l3,.65Z"/><path class="cls-2" d="M753.72,204.1l-1.18-2.56Z"/><path class="cls-2" d="M722.92,198.23l2,.4Z"/><path class="cls-28" d="M374.66,162.14c4.73-6.8,11.76-9.57,19.5-10.71,4.88-.71,9.86-.71,14.79-1,14.95.06,29.91.15,44.86.16q55.35.06,110.69,0c1.82,0,3.64-.17,5.46-.26,9.66.07,19.31.2,29,.2q64.73,0,129.44,0c12.55,0,15.31,2.37,17.27,14.87a107.34,107.34,0,0,1-10.84,1c-4.28,0-8.58-1-12.85-.84-10.54.33-21.14-1.47-31.66.83-1.69.37-3.6-.26-5.4-.43-4.42-.41-8.85-1.23-13.26-1.12-5.3.12-10.57,1.45-15.86,1.49-7.86.07-15.72-.55-23.57-.85-9.55-.35-19.1-1-28.64-.93-12.28,0-24.57.31-36.83,1a117.55,117.55,0,0,1-18.1-.79c-8.74-.81-17.62-.2-26.44-.19-4.75,0-9.5.17-14.23,0-4-.15-8.3-1.95-11.75-.82-5.69,1.86-11.1.18-16.59.64-2.24.19-4.53-.32-6.8-.39q-12.88-.37-25.76-.68c-4.25-.1-8.5-.11-12.75-.14-8.38-.06-16.75,0-25.13-.16-5.57-.09-11.14-.64-16.71-.59-5.28.05-10.56.66-15.84.89C376,163.44,375.32,162.59,374.66,162.14Z"/><path class="cls-24" d="M374.66,162.14c.66.45,1.33,1.3,2,1.28,5.28-.23,10.56-.84,15.84-.89,5.57-.05,11.14.5,16.71.59,8.38.14,16.75.1,25.13.16,4.25,0,8.5,0,12.75.14q12.87.3,25.76.68c2.27.07,4.56.58,6.8.39,5.49-.46,10.9,1.22,16.59-.64,3.45-1.13,7.79.67,11.75.82,4.73.18,9.48,0,14.23,0,8.82,0,17.7-.62,26.44.19a117.55,117.55,0,0,0,18.1.79c12.26-.73,24.55-1,36.83-1,9.54,0,19.09.58,28.64.93,7.85.3,15.71.92,23.57.85,5.29,0,10.56-1.37,15.86-1.49,4.41-.11,8.84.71,13.26,1.12,1.8.17,3.71.8,5.4.43,10.52-2.3,21.12-.5,31.66-.83,4.27-.14,8.57.83,12.85.84a107.34,107.34,0,0,0,10.84-1l1.65,9c-7.4.24-14.81.5-22.21.69-3.11.08-6.22,0-9.34,0-2.81.05-5.62.29-8.43.3-8.24,0-16.48.13-24.72,0-5.78-.12-11.56-.9-17.34-.89-9.55,0-19.1.41-28.64.67-2.32.06-4.64.4-7,.33-9.12-.26-18.23-.64-27.34-1-10-.34-20-.94-30.06-.89-5.74,0-11.46,1.3-17.21,1.64-2.93.17-5.89-.66-8.84-.72-20.78-.39-41.55-.65-62.32-1.07-4.62-.09-9.24-.89-13.85-.89-4.79,0-9.57.83-14.36.88-8.53.09-16.91-.87-25.63.63-8,1.37-16.6-1-24.95-1.29-8.12-.24-16.25.26-24.38.25-4.07,0-8.14-.46-12.21-.72Z"/><path class="cls-21" d="M643.92,328.53l-17.28-1a8.75,8.75,0,0,0-3,0c-6.09,2-12.25,1.3-18.5,1.11-4.66-.13-9.35,1.46-14.06,1.72-3.41.18-6.86-.7-10.31-.82a55.17,55.17,0,0,0-6.88.64L570,328.51v-43c10.72-.32,21.44-.74,32.17-.92,3.59-.05,7.19.72,10.78.72,3.44,0,7-1.19,10.29-.61,7.21,1.27,14,0,20.73-2.15l.24,14Q644.07,312.56,643.92,328.53Z"/><path class="cls-19" d="M556.74,217.62q12.07,0,24.14-.07c13.09,0,26.18.11,39.28-.05,6.93-.08,13.85-.79,20.78-.89,3.94-.05,7.88.58,11.82.9-5,6.52-9.08,13.41-8.83,22-3.95,1-7.85,2.57-11.85,2.85-4.63.31-9.36-.92-14-.75-5.06.19-10,1.45-15-.87-2.07-.94-5.15.24-7.76.56-2.77.34-5.52,1.06-8.29,1.15-5.65.18-11.3,0-17,0q-3.43-8.06-6.88-16.09l-3.27-4.78Z"/><path class="cls-20" d="M644,282.56c-6.76,2.17-13.52,3.42-20.73,2.15-3.29-.58-6.85.62-10.29.61-3.59,0-7.19-.77-10.78-.72-10.73.18-21.45.6-32.17.92q0-11.49,0-23c5.88,0,11.75.08,17.62,0a36,36,0,0,0,5.33-.84,19.75,19.75,0,0,1,3.83-.63c6.63.25,13.2,2.26,19.92-.3,2.31-.87,5.33-.52,7.87,0,6.62,1.34,13.06,1.38,19.4-1.18Q644,271.05,644,282.56Z"/><path class="cls-17" d="M644,259.56c-6.34,2.56-12.78,2.52-19.4,1.18-2.54-.52-5.56-.87-7.87,0-6.72,2.56-13.29.55-19.92.3a19.75,19.75,0,0,0-3.83.63,36,36,0,0,1-5.33.84c-5.87.1-11.74,0-17.62,0l0-20c5.65,0,11.3.14,17,0,2.77-.09,5.52-.81,8.29-1.15,2.61-.32,5.69-1.5,7.76-.56,5.09,2.32,10,1.06,15,.87,4.65-.17,9.38,1.06,14,.75,4-.28,7.9-1.85,11.85-2.85Z"/><path class="cls-6" d="M512.87,201.1l6,.62C516.69,203.37,514.49,205.05,512.87,201.1Z"/><path class="cls-6" d="M559.88,221.66l3.27,4.78Z"/><path class="cls-6" d="M520.89,202l4,.75Z"/><path class="cls-6" d="M532.89,204.84l3.19,1.19C533.76,209,533.56,206.29,532.89,204.84Z"/><path class="cls-6" d="M546.94,210.78l1,.78Z"/><path class="cls-6" d="M553.94,215.7l1,.86Z"/><path class="cls-27" d="M1042.85,23.58q0,18,0,36c-1,2.48-2,5-2.58,6.43-3,1-5.47,1.88-8,2.57a15.61,15.61,0,0,1-4.19.56c-1.8,0-3.66-.73-5.38-.45-8.28,1.33-16.51,3-24.78,4.33-6.33,1-12.7,1.72-19.06,2.55-7.24-5.33-7.69-13-7.11-21a28.74,28.74,0,0,0,1.06-5.1c.15-4.8,0-9.59,0-14.72,4.05-1.14,7.63-2.45,11.33-3.14,11.18-2.09,22.38-4.22,33.64-5.81C1026.16,24.63,1034.53,24.29,1042.85,23.58Z"/><path class="cls-26" d="M1042.85,23.58c-8.32.71-16.69,1.05-24.95,2.22-11.26,1.59-22.46,3.72-33.64,5.81-3.7.69-7.28,2-11.33,3.14,0,5.13.1,9.92,0,14.72a28.74,28.74,0,0,1-1.06,5.1c0-9,.16-18-.05-26.93-.26-11.33,7.25-21.1,20.5-21.08,11.77,0,23.55.42,35.32.9C1034.24,7.73,1043.27,15.84,1042.85,23.58Z"/><path class="cls-22" d="M978.93,75.54C985.29,74.71,991.66,74,998,73c8.27-1.33,16.5-3,24.78-4.33,1.72-.28,3.58.43,5.38.45a15.61,15.61,0,0,0,4.19-.56c2.5-.69,4.94-1.58,8-2.57.59-1.47,1.58-4,2.58-6.43l.3,3.05c-.53,2.28-1.07,4.56-1.6,6.84-5.28,8.47-13,11.61-22.79,11.09-7.44-.39-14.93,0-22.39-.11-4.11-.09-8.21-.65-12.32-1l-1.18-.8-.06,0-.92-.75-1.84-.41C979.7,76.8,979.32,76.17,978.93,75.54Z"/><path class="cls-18" d="M441,630.59l.1-.18-.18.08Z"/><path class="cls-10" d="M982.91,78.63l1.18.8Z"/><path class="cls-10" d="M981.93,77.83l.92.75Z"/><path class="cls-10" d="M1000,155.07l-1.93-1.57Z"/><path class="cls-10" d="M1001.88,157h-.42v-.41A1.81,1.81,0,0,1,1001.88,157Z"/><path class="cls-1" d="M847.37,237c0,.7.11,1.41.16,2.11l-.89.08-.18-2.12Z"/><path class="cls-1" d="M838.93,240.56l-2-1.08Z"/><path class="cls-29" d="M184.35,636.82c.09,0,.22,0,.27,0a1.19,1.19,0,0,1,.14.3h-.55A2.09,2.09,0,0,1,184.35,636.82Z"/></g></g></svg>